# xmcd
#
# Track frame offsets:
#	150
#	14107
#	27900
#	42942
#	56635
#	73452
#	92532
#	112026
#	122969
#	135497
#	150555
#	167092
#	183000
#	201049
#	221065
#	242176
#	258381
#	283116
#
# Disc length: 4075 seconds
#
# Revision: 1
# Processed by: cddbd v1.5.2PL0 Copyright (c) Steve Scherf et al.
# Submitted via: audiograbber 1.83.01
#
DISCID=0f0fe912
DTITLE=Teddy Wilson - CD 7 (Copenhagen 1980)
DYEAR=1980
DGENRE=Jazz
TTITLE0=S'Wonderful
TTITLE1=Someday Sweetheart
TTITLE2=The Sheik of Araby
TTITLE3=More Than You Know
TTITLE4=Nobody's Sweetheart
TTITLE5=Rose Room
TTITLE6=China Boy
TTITLE7=Sweet Sue
TTITLE8=Moonglow
TTITLE9=Exactly Like You
TTITLE10=Sweet Lorraine
TTITLE11=Whispering
TTITLE12=How High the Moon
TTITLE13=Keeping Out of Mischief Now
TTITLE14=Don't Be That Way
TTITLE15=Somebody Loves Me
TTITLE16=St. Louis Blues
TTITLE17=I'll Remember April
EXTD=
EXTT0=
EXTT1=
EXTT2=
EXTT3=
EXTT4=
EXTT5=
EXTT6=
EXTT7=
EXTT8=
EXTT9=
EXTT10=
EXTT11=
EXTT12=
EXTT13=
EXTT14=
EXTT15=
EXTT16=
EXTT17=
PLAYORDER=
